<svg xmlns="http://www.w3.org/2000/svg" width="246.22368mm" height="70.18784mm" viewBox="0 0 697.9569 198.95767"><g id="Capa_2" data-name="Capa 2"><g id="Capa_1-2" data-name="Capa 1"><g><path d="M281.17858,91.3896c-.71952-11.67748-6.09912-21.74628-19.57169-21.74628s-20.30375,9.36019-21.35764,21.74628Zm16.16963,50.09418c-8.79623,4.84642-18.86315,7.36264-31.79157,7.36264-30.53158,0-48.3046-17.5976-48.3046-47.93935,0-26.759,14.18658-48.84876,42.9159-48.84876,34.306,0,43.98607,23.5305,43.98607,55.84438H240.24925c1.05389,14.90247,11.486,23.34613,26.392,23.34613,11.66667,0,21.72642-4.31318,30.707-9.342v19.577Z" fill="#005092"></path><path d="M315.27663,54.20767h22.45312V67.13974h.36144A32.55593,32.55593,0,0,1,365.566,52.05831c12.91943,0,22.08615,4.83913,27.29766,16.33236,5.56583-11.12262,17.59406-16.33236,28.9155-16.33236,22.8182,0,29.2662,15.62917,29.2662,36.26738V146.6773H426.98884V91.56856c0-8.62252,0-20.82794-13.83772-20.82794-15.9798,0-17.97,19.02578-17.97,31.06482V146.6773H371.13905V91.56856c0-8.62252,0-20.82794-13.83043-20.82794-15.98891,0-17.97189,19.02578-17.97189,31.06482V146.6773h-24.0601V54.20767Z" fill="#005092"></path><path d="M524.3862,73.60041c-7.36816-2.51268-12.75862-3.95709-21.54922-3.95709-6.4715,0-14.19751,2.34824-14.19751,10.25139,0,14.71806,41.84762,5.38683,41.84762,38.77445,0,21.54382-19.2065,30.17726-38.78,30.17726a107.04863,107.04863,0,0,1-27.31393-3.96052l1.43889-19.75429c7.53978,3.77626,15.45556,6.11721,23.71122,6.11721,6.09907,0,15.8009-2.34095,15.8009-11.31063,0-18.13275-41.835-5.75378-41.835-39.1451,0-19.935,17.41687-28.73478,36.271-28.73478,11.30335,0,18.68044,1.79139,26.21839,3.40747L524.3862,73.60041Z" fill="#005092"></path><path d="M626.45086,146.6773h-22.802V134.11579h-.356c-7.37533,8.98412-17.78577,14.73063-30.35451,14.73063-21.91613,0-31.42814-15.44293-31.42814-36.27815V54.20767h24.06914v49.38917c0,11.30516.1826,26.56379,15.61654,26.56379,17.42046,0,21.18585-18.84318,21.18585-30.7015V54.20767h24.06914V146.6773Z" fill="#005092"></path><path d="M643.54782,54.20767H664.911V75.22185h.37226c1.06293-8.62263,10.94543-23.16354,25.30562-23.16354a26.17872,26.17872,0,0,1,7.36805.71952V77.02229c-2.162-1.25276-6.46785-1.98668-10.77188-1.98668-19.56806,0-19.56806,24.42352-19.56806,37.70986V146.6773H643.54782V54.20767Z" fill="#005092"></path><path d="M99.49785,146.29483A47.52116,47.52116,0,0,1,85.51731,144.178a46.82259,46.82259,0,1,1,60.79015-44.6982h-14.23a32.59591,32.59591,0,1,0-42.34284,31.10817,33.16067,33.16067,0,0,0,9.76323,1.4769v14.23Z" fill="#d8dbe8"></path><path d="M139.131,150.15781l-8.77444-11.19853a50.12735,50.12735,0,1,0-65.64193-3.3677l-9.88619,10.23324a64.39834,64.39834,0,1,1,84.30256,4.333Z" fill="#3cb4e5"></path><path d="M99.49785,181.27142a82.05259,82.05259,0,0,1-80.14852-65.32557l13.93712-2.85251A67.51777,67.51777,0,1,0,74.843,36.54746L69.655,23.29726A81.80133,81.80133,0,1,1,99.49785,181.27142Z" fill="#6a7aa6"></path><path d="M99.49785,198.95767a102.94612,102.94612,0,0,1-13.29362-.89661,98.67854,98.67854,0,0,1-22.435-5.72667A99.48,99.48,0,1,1,198.94683,99.47976a100.53683,100.53683,0,0,1-1.8095,18.94976,94.54719,94.54719,0,0,1-2.57232,10.33083l-13.59184-4.20644a79.91285,79.91285,0,0,0,2.18726-8.79425,86.30888,86.30888,0,0,0,1.55822-16.2799A85.24433,85.24433,0,1,0,68.87585,179.0534,84.30983,84.30983,0,0,0,88.06067,183.954a88.37193,88.37193,0,0,0,11.43718.77367v14.23Z" fill="#005092"></path></g></g></g></svg>